<?xml version="1.0" encoding="UTF-8"?>
<svg xmlns="http://www.w3.org/2000/svg" version="1.1" viewBox="0 0 595.28 200">
  <defs>
    <style>
      .cls-1 {
        fill: #fff;
      }

      .cls-2 {
        fill: #058c44;
      }
    </style>
  </defs>
  <!-- Generator: Adobe Illustrator 28.6.0, SVG Export Plug-In . SVG Version: 1.2.0 Build 709)  -->
  <g>
    <g id="Capa_1">
      <g>
        <path class="cls-1" d="M175.73,179.1c12.18,0,25.74,0,39.29,0,6.86,0,13.72.01,20.58.02,13.26.01,26.52.02,39.79.03,6.73,0,13.46,0,20.19.01,1.21,0,1.09-.11,1.1,1.12,0,1.48-.02,2.95,0,4.43,0,.5-.16.71-.67.71-1.54,0-3.07.22-4.62.22-79.31,0-158.63,0-237.94,0-1.62,0-1.46.13-1.46-1.5,0-1.48,0-2.95,0-4.43,0-.69.06-.73.72-.76.2,0,.39,0,.59,0,19.99,0,39.98,0,59.98,0,6.73,0,13.46,0,20.19.01,6.86,0,13.72-.04,20.58.04,6.76.08,13.52,0,21.66.08Z"/>
        <path class="cls-1" d="M343.34,180.44c.08-4.36.15-8.72.23-13.08,0-.2,0-.39,0-.59.04-.79.09-.86.85-.86,1.81-.01,3.61.01,5.42-.01.51,0,.7.15.67.67-.04.62,0,1.25,0,1.87,0,9.19,0,18.38,0,27.56,0,.26-.01.53,0,.79.02.42-.23.58-.59.64-.19.03-.39.02-.59.02-1.58,0-3.15-.03-4.73.02-.57.02-.89-.19-1.17-.66-.54-.9-1.05-1.81-1.46-2.78-1.38-3.29-2.79-6.58-4.2-9.86-.11-.26-.16-.56-.49-.82-.16,1.09-.15,2.12-.17,3.14-.06,3.21-.1,6.43-.15,9.64,0,.16,0,.33-.01.49-.06.83-.06.84-.91.84-1.87,0-3.74-.01-5.61,0-.49,0-.75-.12-.69-.65.02-.16,0-.33,0-.49,0-9.78,0-19.56,0-29.33,0-1.18-.13-1.07,1.03-1.07,1.81,0,3.61.02,5.42-.02.59-.01.86.21,1.09.72,1.74,3.85,3.27,7.8,4.92,11.69.31.74.57,1.51,1.13,2.14Z"/>
        <path class="cls-1" d="M400.66,184.53c.34.76.67,1.44,1.16,2.03.35.42.49.91.49,1.46,0,2.85,0,5.71,0,8.56,0,.84-.03.86-.91.86-1.84,0-3.67,0-5.51,0-.71,0-.71-.01-.74-.68-.07-1.97-.13-3.93-.2-5.9,0-.26,0-.53-.04-.79-.16-1.25-.46-1.59-1.67-1.92-.47-.13-.94-.27-1.42-.38-.69-.16-.74-.12-.77.56-.06,1.87-.11,3.74-.17,5.6-.03.95-.06,1.9-.05,2.85,0,.44-.1.66-.6.65-1.97-.02-3.94,0-5.91-.01-.62,0-.7-.12-.73-.78,0-.2,0-.39,0-.59,0-9.64,0-19.28,0-28.93,0-.16,0-.33,0-.49.02-.73.02-.75.78-.75,3.58,0,7.15-.04,10.73.02,1.71.03,3.44.33,4.85,1.36,1.33.98,2.41,2.18,2.38,4.05-.05,3.25-.03,6.49,0,9.74,0,.77-.18,1.49-.41,2.21-.19.61-.7.91-1.24,1.26ZM390.8,176.28c0,1.44.02,2.89,0,4.33,0,.51.18.63.68.68,1.2.11,2.13-.54,3.15-.96.2-.08.3-.24.33-.45.06-.49.2-.96.19-1.46-.02-1.11-.02-2.23,0-3.35.02-.96-.05-1.89-.34-2.81-.25-.79-.37-.94-1.21-.98-.66-.03-1.31-.02-1.97,0-.78.01-.81.05-.82.86-.01,1.38,0,2.76,0,4.13Z"/>
        <path class="cls-1" d="M503.35,187.51c0,1.5,0,2.88,0,4.25,0,1.67-.02,3.35,0,5.02,0,.52-.18.67-.68.66-1.94-.02-3.87-.02-5.81,0-.5,0-.75-.13-.68-.66.02-.16,0-.33,0-.49,0-9.78,0-19.56,0-29.34,0-1.18-.14-1.07,1.04-1.07,3.28,0,6.57,0,9.85,0,1.29,0,2.6.13,3.79.52,1.26.41,2.36,1.25,3.2,2.34.59.76.61,1.63.61,2.52,0,3.77,0,7.55,0,11.32,0,.75-.19,1.37-.95,1.64-.29.1-.3.26-.26.53.08.54.21,1.03.67,1.36.44.32.55.75.55,1.28-.02,2.99,0,5.97-.01,8.96,0,1.02-.05,1.06-1.05,1.06-1.74,0-3.48,0-5.22,0-.7,0-.71-.02-.73-.72-.07-1.84-.14-3.67-.2-5.51,0-.07,0-.13,0-.2-.08-1.96-.08-1.97-1.86-2.7-.69-.28-1.35-.65-2.26-.8ZM503.35,176.38c0,1.44,0,2.89,0,4.33,0,.35.08.55.51.51,1.08-.1,2.13-.25,3.07-.9.48-.34.77-.7.77-1.27,0-1.94.04-3.87-.01-5.81-.03-1.18-.82-1.88-2.02-1.96-.49-.03-.98-.01-1.48,0-.76.02-.82.07-.83.86-.01,1.41,0,2.82,0,4.23Z"/>
        <path class="cls-1" d="M486.47,181.77c0,2.79,0,5.58,0,8.37,0,.23,0,.46,0,.69-.08,2.59-.25,3.02-2.11,4.81-.74.71-1.7,1.1-2.68,1.38-2.35.66-4.78.63-7.14.37-2.91-.33-5.2-1.9-6.41-4.71-.43-1.01-.41-2.14-.41-3.2.03-5.58.2-11.15.19-16.73,0-1.51.44-2.79,1.2-3.96.66-1,1.56-1.86,2.73-2.29,1.26-.46,2.52-.9,3.87-1.05,1.16-.13,2.29.12,3.44.09,1.21-.04,2.33.27,3.44.68.31.11.6.24.85.47.64.61,1.31,1.19,1.97,1.78.51.46.81,1.02.89,1.7.08.68.16,1.37.16,2.06,0,3.18,0,6.37,0,9.55ZM475.16,181.66c0,2.82.02,5.64-.02,8.45,0,.69.35,1.18.67,1.69.27.43.77.27,1.17.36.16.03.32.08.48.09.6.03,1.52-.44,1.6-.86.2-1.03.46-2.03.45-3.1-.03-2.88-.01-5.77-.01-8.65,0-2,0-4,0-6,0-.89-.35-1.67-1.04-2.22-.52-.41-1.15-.59-1.83-.2-.78.46-1.5.89-1.48,1.98.03,2.82.01,5.64.01,8.45Z"/>
        <path class="cls-1" d="M440.04,181.47c0-3.44,0-6.89,0-10.33,0-.61.17-1.11.47-1.65,1.2-2.13,3.18-3.17,5.39-3.81,1.08-.31,2.26-.38,3.42-.27.62.06,1.24.13,1.86.13.97,0,1.85.3,2.77.55,1.38.37,2.32,1.3,3.33,2.19.12.11.24.24.29.39.48,1.21,1.04,2.38.96,3.76-.1,1.86-.02,3.74-.03,5.61,0,.91-.04.94-.94.94-1.84,0-3.68,0-5.51,0-.73,0-.72-.01-.76-.76-.06-1.41-.11-2.82-.2-4.22-.09-1.4-.83-2.12-2.07-2.33-.52-.09-1.47.51-1.62,1.03-.11.37-.19.76-.19,1.16,0,5.09,0,10.17,0,15.26,0,.73.05,1.57.75,1.89.88.4,1.87.35,2.73-.23.37-.25.38-.65.4-1.06.06-1.51.13-3.01.19-4.52.03-.83.03-.84.8-.84,1.84,0,3.68,0,5.51,0,.85,0,.9.05.9.89,0,2.1.17,4.22-.05,6.29-.19,1.88-1.01,3.55-2.83,4.55-1.84,1.01-3.78,1.43-5.85,1.37-.23,0-.46-.02-.69,0-1.87.17-3.64-.21-5.39-.85-.41-.15-.78-.32-1.09-.63-.37-.37-.78-.71-1.18-1.05-.93-.79-1.37-1.83-1.37-3.02-.02-3.48,0-6.96,0-10.43Z"/>
        <path class="cls-1" d="M421.09,165.9c.89,0,1.77,0,2.66,0,1.11,0,.87-.05,1.14.93.64,2.37,1.09,4.79,1.6,7.2,1.48,6.99,2.97,13.98,4.44,20.96.12.54.23,1.09.3,1.64.08.6-.06.76-.68.8-.56.03-1.12.01-1.67.01-1.35,0-2.69,0-4.04,0-.77,0-.89-.1-1.02-.87-.12-.74-.19-1.5-.28-2.24-.03-.26-.08-.52-.1-.78-.03-.51-.24-.73-.79-.71-1.05.04-2.1,0-3.15.01-.75,0-.77.03-.85.75-.12.98-.21,1.96-.34,2.93-.13.9-.15.91-1.04.91-1.77,0-3.55,0-5.32,0-.98,0-1.28-.34-1.09-1.31.12-.64.31-1.27.46-1.91,1.11-4.52,1.96-9.1,2.94-13.64.96-4.49,1.88-8.98,2.82-13.47.03-.16.1-.31.12-.48.09-.53.33-.78.93-.75.98.05,1.97.01,2.95.01ZM422.06,185.82c.09-1.5-.24-3.07-.45-4.66-.06-.44-.36-.53-.67-.57-.36-.05-.39.28-.43.53-.08.48-.16.97-.22,1.45-.16,1.43-.52,2.83-.52,4.27,0,1.31-.19,1.37,1.43,1.34.1,0,.2,0,.29-.02.36-.08.58-.25.57-.66-.01-.52,0-1.05,0-1.68Z"/>
        <path class="cls-1" d="M524.39,181.61c0-4.85,0-9.7,0-14.56,0-.26,0-.52,0-.79,0-.24.13-.36.36-.36.23,0,.46,0,.69,0,3.51,0,7.02,0,10.53,0,1.79,0,3.44.5,4.92,1.46.79.51,1.33,1.34,1.86,2.13.15.23.12.5.12.76,0,3.77.06,7.54-.02,11.31-.04,1.69-1.04,2.92-2.46,3.78-1.24.76-2.66.89-4.05,1.09-1.33.19-2.67.25-4.02.22-.68-.01-.7.02-.7.72,0,2.89,0,5.77,0,8.66,0,.23,0,.46,0,.69.01.49-.2.72-.7.72-1.93,0-3.87,0-5.8,0-.64,0-.69-.09-.72-.77-.01-.29,0-.59,0-.89,0-4.72,0-9.44,0-14.16ZM531.62,175.99c0,1.51,0,3.02,0,4.53,0,.74.02.74.78.75.69,0,1.38,0,2.07,0,.87-.01.9-.01.99-.84.33-3.01.25-6.02-.01-9.03-.04-.47-.29-.61-.71-.61-.82,0-1.64.03-2.46,0-.52-.02-.68.18-.67.68.02,1.51,0,3.02,0,4.53Z"/>
        <path class="cls-1" d="M360.27,181.09c0-4.63,0-9.25,0-13.88,0-.23.02-.46,0-.69-.04-.45.11-.67.6-.63.36.03.72,0,1.08,0,3.68,0,7.35,0,11.03,0,.23,0,.46,0,.69,0,.27,0,.44.08.44.39-.01,1.54.08,3.08-.19,4.61-.08.44-.38.38-.66.38-1.48,0-2.95,0-4.43,0-1.17,0-1.09-.17-1.09,1.12,0,1.58,0,3.15,0,4.73,0,1.01,0,1.03,1.05,1.12.78.07,1.57.11,2.36.12.5,0,.7.19.69.7-.02,1.44,0,2.89-.01,4.33,0,.66-.02.67-.74.68-.85,0-1.71,0-2.56,0-1.14,0-1.08-.12-1.08,1.04,0,3.71,0,7.42,0,11.12,0,1.39.12,1.18-1.22,1.19-1.67.01-3.35,0-5.02,0-.46,0-.71-.08-.77-.62-.07-.62-.15-1.23-.15-1.86,0-4.63,0-9.25,0-13.88Z"/>
        <path class="cls-1" d="M313.06,181.6c0-4.79,0-9.58,0-14.37,0-.2,0-.39,0-.59.02-.73.02-.74.78-.75,1.87,0,3.74,0,5.61,0,.82,0,.83.01.83.79,0,9.94,0,19.87,0,29.81,0,.87-.07.93-.97.94-1.8,0-3.61,0-5.41,0-.83,0-.84-.01-.84-.88,0-4.99,0-9.97,0-14.96Z"/>
        <path class="cls-2" d="M505.23,83.73c.03-.62.13-1.15.44-1.65,4-6.47,7.66-13.15,11.45-19.74,3.95-6.88,7.91-13.76,11.87-20.64.42-.74.83-1.49,1.26-2.23.36-.62.82-.63,1.24-.04.06.08.1.17.15.25,4.81,8.39,9.65,16.77,14.41,25.19,3.28,5.79,6.65,11.53,9.94,17.32.23.41.72.81.39,1.32-.28.44-.83.3-1.28.3-16.32,0-32.63,0-48.95,0-.29,0-.59.06-.93-.09Z"/>
        <g>
          <path class="cls-1" d="M593.36,35.1c0-1.78-.14-3.55-.48-5.28-2.27-11.52-8.72-19.82-19.37-24.79-4.53-2.12-9.36-2.9-14.35-2.9-174.45,0-348.9,0-523.35,0-.39,0-.79,0-1.18,0-2.04.06-4.06.22-6.06.62C12.77,5.88,1.58,19.66,1.58,35.45c0,29.18,0,58.35,0,87.53,0,1.91.12,3.81.48,5.68,2.12,10.91,8.08,18.98,17.95,24.12,4.86,2.53,10.1,3.56,15.57,3.56,87.29-.01,174.58,0,261.87,0s174.12,0,261.18,0c.53,0,1.05,0,1.58,0,2.17,0,4.32-.23,6.45-.66,15.38-3.1,26.65-16.65,26.68-32.34.07-29.4.02-58.81.02-88.21ZM124.31,41.25c-.15,1.47-.27,2.94-.46,4.4-.48,3.67-.98,7.34-1.48,11.01-.55,4.02-1.1,8.05-1.67,12.07-.55,3.96-1.12,7.91-1.68,11.87-.64,4.51-1.27,9.02-1.91,13.53-.55,3.89-1.09,7.79-1.63,11.68-.65,4.71-1.29,9.41-1.93,14.12-.23,1.66-.43,3.31-.65,4.97-.02.16-.02.33-.05.49-.13.61-.28.75-.92.76-1.54.03-3.09.02-4.63.08-5.45.2-10.89.16-16.34.16-.23,0-.46,0-.69,0-.68,0-1.12-.27-1.42-.94-2.01-4.49-3.91-9.02-5.83-13.55-3.97-9.35-7.98-18.69-11.96-28.03-.94-2.2-1.79-4.44-2.69-6.66-.06-.15-.11-.31-.18-.46-.09-.21.08-.63-.34-.56-.34.05-.23.43-.25.66-.74,6.25-1.68,12.47-2.5,18.7-.83,6.27-1.77,12.52-2.65,18.78-.52,3.67-1.05,7.33-1.57,10.99-.11.8-.12.81-.89.83-6.23.11-12.47.32-18.7.23-.69,0-1.37-.12-2.05-.19-.68-.08-.85-.25-.77-.95.13-1.11.31-2.21.47-3.31.63-4.34,1.28-8.69,1.9-13.03.64-4.47,1.28-8.95,1.9-13.43.62-4.44,1.23-8.89,1.85-13.34.63-4.48,1.27-8.95,1.9-13.43.62-4.45,1.22-8.89,1.84-13.34.64-4.57,1.29-9.15,1.95-13.72.13-.93.17-.93,1.1-.93,7.19,0,14.38.01,21.56-.02.72,0,1.02.26,1.3.87,3.35,7.3,6.32,14.76,9.51,22.13,3.13,7.22,6.17,14.47,9.28,21.7.61,1.41,1.34,2.77,2.02,4.16.06.11.12.23.33.25.26-1.87.52-3.75.79-5.63.57-4.12,1.15-8.24,1.72-12.36.55-3.96,1.08-7.92,1.63-11.88.63-4.51,1.28-9.02,1.91-13.53.15-1.07.31-2.14.44-3.21.07-.59.23-1.15.39-1.72.15-.55.41-.78,1.02-.76,1.57.05,3.15.02,4.73.02,5.05,0,10.11,0,15.16,0,.23,0,.46.02.69,0,.42-.04.5.18.47.54ZM213.27,53.08c-.48,3.54-.98,7.07-1.48,10.61-.57,4.06-1.14,8.11-1.7,12.17-.55,3.96-1.09,7.92-1.64,11.88-.63,4.51-1.31,9.02-1.89,13.53-.34,2.67-.92,5.29-1.52,7.91-.43,1.89-1.2,3.67-1.99,5.43-.11.24-.26.46-.37.7-.98,2.31-2.59,4.19-4.3,5.94-1.14,1.16-2.49,2.12-3.95,2.89-3.18,1.67-6.62,2.45-10.14,2.97-.78.11-1.57.13-2.35.16-4.33.18-8.65.46-12.99.42-5.88-.06-11.75.04-17.63-.03-3.81-.05-7.6-.51-11.27-1.55-2.68-.76-5.01-2.21-6.91-4.33-1.55-1.73-2.49-3.73-3.07-5.95-.48-1.82-.74-3.66-.63-5.54.03-.56.03-1.12,0-1.67-.17-2.9.28-5.76.67-8.61.5-3.63,1.01-7.27,1.51-10.9.63-4.51,1.26-9.02,1.89-13.53.55-3.96,1.09-7.92,1.64-11.88.64-4.58,1.3-9.15,1.91-13.73.38-2.79.79-5.58,1.23-8.36.14-.88.14-.9,1.06-.9,6.76,0,13.53,0,20.29,0,.13,0,.26,0,.39,0,.32-.01.48.1.44.46-.16,1.5-.16,3.01-.38,4.51-.58,4.02-1.15,8.04-1.72,12.07-.63,4.48-1.27,8.95-1.9,13.43-.62,4.45-1.23,8.89-1.85,13.34-.62,4.45-1.28,8.89-1.87,13.33-.33,2.5-.9,4.98-.69,7.53.12,1.48.77,2.67,2.13,3.5,1.61.98,3.37,1.02,5.13,1.04,5.48.04,10.96.02,16.45.01,2.02,0,3.92-.62,5.54-1.76.9-.63,1.55-1.64,1.91-2.79.84-2.71,1.15-5.51,1.55-8.3.58-4.12,1.16-8.24,1.73-12.36.48-3.44.95-6.88,1.43-10.32.64-4.58,1.28-9.15,1.93-13.72.68-4.83,1.37-9.67,2.05-14.5.2-1.43.37-2.86.56-4.29.11-.84.21-.94,1.05-.94,6.89,0,13.79,0,20.68,0,.19,0,.4-.04.67.15-.53,4.01-1.06,8-1.6,11.99ZM280.54,94.18c.01.88-.02.9-.98.9-6.2,0-12.41,0-18.61,0-4.96,0-9.91,0-14.87,0-.23,0-.46.01-.69,0-.4-.03-.52.18-.5.54.01.26,0,.52,0,.79,0,9.52,0,19.03,0,28.55,0,1.37.12,1.18-1.22,1.2-6.2.08-12.4.16-18.6.23-2.16.03-2.28-.18-2.28-2.26,0-13.62,0-27.24,0-40.85s0-27.43,0-41.15c0-1.38-.13-1.18,1.22-1.19,6.79-.03,13.59,0,20.38-.09,14.57-.21,29.14-.09,43.72-.13.13,0,.26,0,.39,0q1.75.02,1.75,1.73c0,4.73,0,9.45,0,14.18,0,.23-.02.46,0,.69.04.46-.13.65-.61.64-.82-.02-1.64.03-2.46.03-7.22.03-14.44.05-21.66.08-6.5.03-13,.08-19.49.12-.1,0-.2,0-.3,0-.45-.04-.65.13-.63.61.03.85,0,1.71,0,2.56-.07,5.15-.14,10.3-.2,15.45-.01,1.16-.08,1.07,1.05,1.07,11.06,0,22.12,0,33.19,0,1.3,0,1.13-.13,1.23,1.14.38,5.05.1,10.1.18,15.15ZM369.67,126.38c-7.09,0-14.18-.01-21.27.02-.72,0-1.08-.2-1.42-.85-.96-1.85-1.54-3.83-2.24-5.77-.95-2.62-1.79-5.28-2.8-7.87-.26-.67-.6-.92-1.35-.92-9.19.03-18.38.02-27.58.02-.96,0-.86-.21-1.24.86-1.49,4.17-2.98,8.33-4.46,12.5-.1.28-.18.56-.31.83-.37.79-.86,1.22-1.87,1.22-6.43-.06-12.87-.03-19.3-.02-1.05,0-2.09-.16-3.17-.27,0-.55.21-.93.35-1.33,2.98-8.51,6.27-16.9,9.43-25.34,7.19-19.22,14.4-38.42,21.6-57.63.08-.21.16-.43.24-.64.12-.31.33-.48.68-.46.2.01.39,0,.59,0,7.48,0,14.97.01,22.45-.02.78,0,1.14.23,1.45.94,1.69,3.81,3.03,7.75,4.49,11.65,7.77,20.65,15.5,41.3,23.25,61.95,1.2,3.19,2.54,6.33,3.61,9.56.48,1.46.39,1.59-1.13,1.59ZM446.73,126.09c0,.45-.37.82-.82.82-10.02,0-46.41.05-54.83-.04-2.51-.03-5.01-.42-7.38-1.42-1.73-.73-3.42-1.5-4.87-2.71-1.34-1.12-2.58-2.28-3.46-3.84-.94-1.66-1.83-3.35-2.37-5.17-.66-2.23-1-4.53-1.11-6.87-.24-5.05-.06-10.1-.11-15.15-.03-3.02,0-6.04,0-9.06,0-3.97.03-7.94,0-11.91-.04-3.41.14-6.82.22-10.23.04-1.68.52-3.3.84-4.94.53-2.75,1.7-5.25,3.28-7.51.87-1.25,2.02-2.33,3.28-3.24,1.41-1.01,2.93-1.86,4.58-2.46,2.01-.73,4.1-1.12,6.21-1.44,1.95-.3,3.93-.21,5.9-.21,12.84,0,25.67,0,38.51,0,1.48,0,2.95.2,4.42.21.45,0,.57.21.54.6,0,.1,0,.2,0,.3,0,5.09,0,10.17,0,15.26,0,.48-.39.86-.86.87-7.42.04-14.84.07-22.25.12-5.28.03-10.57.05-15.85.15-1.53.03-3.07.25-4.31,1.35-.35.31-.62.64-.88,1.02-1.12,1.62-1.05,3.47-1.14,5.29-.14,2.75-.06,5.51-.07,8.27,0,9.71,0,19.43-.02,29.14,0,1.13.18,2.23.48,3.29.24.86.93,1.55,1.64,2.02.74.49,1.63.83,2.58.84,8.2.07,16.41.14,24.61.21.03,0,.07,0,.1,0,1.11,0,1.02.11,1.03-.98,0-3.22-.03-6.43.01-9.65.03-2.03.15-4.06.25-6.09.04-.87.07-.88-.81-.88-4.46,0-8.93,0-13.39,0-.23,0-.46-.01-.69,0-.36.02-.54-.16-.6-.51-.07-.39-.17-.76-.17-1.16,0-4,0-8.01,0-12.01,0-.56.45-1.01,1.01-1.01,3.71-.03,7.42-.03,11.13-.07,7.97-.1,15.95-.17,23.92-.17.2,0,.39,0,.59,0,.68.02.81.05.89.55.2,1.14.26,2.3.25,3.45-.04,7.37,0,14.73-.1,22.1-.09,6.82-.15,15.35-.15,20.47v2.41ZM553.12,89.73c-1.79,3.21-3.45,6.48-5.3,9.66-5.21,8.99-10.37,18.02-15.54,27.04-.08.14-.16.29-.24.43-1.06,1.75-1.24,1.85-3.3,1.85-15.79,0-31.58,0-47.36.02-.81,0-1.34-.23-1.82-.86-.52-.68-1.04-1.35-1.46-2.09-4.67-8.21-9.34-16.42-14-24.63-3-5.28-5.89-10.6-8.92-15.86-.57-.98-.71-2.06-.1-3.17.72-1.32,1.4-2.67,2.15-3.98,5.6-9.83,11.24-19.63,16.77-29.51,1.63-2.92,3.28-5.83,5.12-8.63.52-.79,1.09-1.11,2.07-1.15,9.68-.33,19.36-.13,29.04-.15,4.33,0,8.66.12,12.99.2.29,0,.59-.06.92.12-.04.76-.21,1.49-.58,2.2-2.4,4.67-5.1,9.17-7.69,13.73-.34.59-.76.69-1.35.72-7.48.34-14.96.18-22.44.21-.76,0-1.5.08-2.25.17-.37.05-.59.18-.76.51-.32.64-.68,1.27-1.02,1.91-4.05,7.47-8.38,14.77-12.62,22.13-.28.48-.54.97-.84,1.45-.6.99-.57,1.96-.03,2.97,4.15,7.67,8.65,15.15,12.9,22.76.48.86,1.04,1.67,1.58,2.5.51.79,1.2,1.18,2.2,1.18,9.39-.03,18.77-.03,28.16,0,1.22,0,2.04-.49,2.64-1.52,3.82-6.5,7.58-13.04,11.22-19.64.13-.23.28-.45.37-.69.15-.37.42-.44.78-.44,6.27,0,12.54,0,18.82,0,.08.29-.03.43-.11.56ZM556.38,83.51c-.28.44-.83.3-1.28.3-16.32,0-32.63,0-48.95,0-.29,0-.59.06-.93-.09.03-.62.13-1.15.44-1.65,4-6.47,7.66-13.15,11.45-19.74,3.95-6.88,7.91-13.76,11.87-20.64.42-.74.83-1.49,1.26-2.23.35-.62.82-.63,1.24-.04.06.08.1.17.15.25,4.81,8.39,9.65,16.77,14.41,25.19,3.28,5.79,6.65,11.53,9.94,17.32.23.41.72.81.39,1.32Z"/>
          <path class="cls-1" d="M328.35,71.25c-.31-.93-.61-1.87-.96-2.79-.12-.31-.26-.75-.69-.74-.49,0-.43.51-.53.82-2.72,8.35-5.5,16.68-8.35,24.98-.1.3-.29.59-.21,1.01,6.12.44,12.24.24,18.52.29-.33-1.09-.59-2.04-.9-2.96-2.28-6.87-4.58-13.74-6.87-20.61Z"/>
        </g>
      </g>
    </g>
  </g>
</svg>