<?xml version="1.0" encoding="UTF-8"?>
<svg version="1.1" viewBox="0 0 2048 558" width="1280" height="1280" xmlns="http://www.w3.org/2000/svg">
<path transform="translate(67,28)" d="m0 0h91l10 22 16 38 21 49 14 33 15 35 8 16 16-116 10-71 2-6h85l-1 12-9 67-11 78-7 50-8 57-5 37-4 30-1 2-51 1h-37l-3-1-12-27-13-31-13-30-16-38-18-42-10-25v-2h-2l-2 17-12 88-7 48-6 42-51 1h-26l-9-1-1-2 7-47 15-107 24-172z" fill="#414342"/>
<path transform="translate(1401,28)" d="m0 0h167l16 1v66l-154 1-10 2-7 5-5 10-1 20v143l2 10 6 7 8 3 103 1v-48l1-21h-60l-1-4v-52l1-1 118-1h26l1 1 1 9v44l-1 131-19 2-27 2h-23l-5 2-39 3h-107l-19-3-17-7-11-8-8-8-8-14-5-13-3-16-1-16v-151l1-27 4-20 5-13 7-12 11-11 11-7 12-5 18-4z" fill="#01608A"/>
<path transform="translate(411,28)" d="m0 0h85l-1 15-5 35-12 86-15 107v12l5 9 10 5 12 1h68l10-2 10-5 6-8 4-15 23-165 9-63 1-9 1-2h86l-5 38-11 79-10 72-8 57-5 23-6 16-8 15-12 14-12 9-13 6-13 4-17 3-39 2h-94l-8-1-12-1-19-4-12-5-11-8-8-9-6-12-4-17v-31l7-51 25-180 3-19z" fill="#414342"/>
<path transform="translate(1097,28)" d="m0 0h95l5 11 60 160 26 69 19 51 12 31 3 9v2l-2 1h-90l-5-10-15-43-3-7h-115l-20 56-3 4h-82l-10-1 7-20 15-40 26-69 66-176 10-27zm46 105-16 49-17 50-2 6 23 1h50l-3-10-31-93-2-3z" fill="#01608B"/>
<path transform="translate(1776,20)" d="m0 0h77l61 1-1 6-10 19-12 21-11 19-28 1h-67l-7 1-14 26-14 24-13 23-14 24-4 7v6l13 24 13 22 14 25 12 21 7 11 4 3h117l5-3 8-13 14-25 14-24 12-22h76l-6 11-9 17-14 24-14 25-10 17-16 28-15 26-4 5-2 1h-195l-6-7-15-26-14-25-14-24-12-22-14-24-12-22-12-21-1-7 6-12 14-24 15-27 11-19 16-28 15-27 14-24 6-9 2-2z" fill="#02608B"/>
<path transform="translate(890,28)" d="m0 0h107l5 1v66l-176 1-1 77h138l1 13v53l-1 1h-138v121l-81 1-4-1-1-4v-328z" fill="#01608B"/>
<path transform="translate(21,475)" d="m0 0h125l828 1v24l-17 1h-936l-1-1v-24z" fill="#9B9D9C"/>
<path transform="translate(1939,21)" d="m0 0 3 1 10 18 14 24 16 28 15 26 14 25 10 17 12 21 7 12v2l-2 1h-198l1-5 7-11 16-28 15-26 14-25 11-19 30-52z" fill="#008B44"/>
<path transform="translate(1103,424)" d="m0 0h28l5 11 17 41 3 7 1-58 1-1h26v122l-2 1h-24l-5-8-12-28-8-19-1-1-1 56h-28z" fill="#018A44"/>
<path transform="translate(1313,424)" d="m0 0h46l11 2 8 4 6 7 2 5v44l-2 7-3 3h-2l3 6 3 4 1 3v37l-1 1h-27l-1-30-2-5-11-3h-2l-1 38h-27l-1-1zm29 21-1 1v38h7l9-4 1-5v-21l-2-8-3-1z" fill="#008A44"/>
<path transform="translate(1752,424)" d="m0 0h45l13 2 9 6 4 5 1 4v51l-2 3-3 1 1 5 4 4v41l-1 1h-26l-1-26-1-7-12-5-3-1v39h-28zm29 21-1 1v38l9-1 7-4 1-3v-24l-2-5-5-2z" fill="#008A44"/>
<path transform="translate(1675,422)" d="m0 0 17 1 9 3 10 9 2 3 1 7v78l-1 9-8 9-8 4-10 2h-20l-10-3-8-6-5-6-2-5-1-10 1-73 5-10 8-7 12-4zm2 22-5 3-2 3v71l3 5 7 1 5-2 2-10v-63l-3-6-4-2z" fill="#018B44"/>
<path transform="translate(1565,422)" d="m0 0 17 1 11 4 8 7 4 10v30l-1 1h-27l-1-22-3-5-6-2-5 3-1 4v64l2 5 7 1 5-2 1-2 1-23h27l1 1v29l-4 9-4 5-10 5-10 2h-19l-13-4-9-8-3-7v-87l6-9 9-6 8-3z" fill="#008A44"/>
<path transform="translate(1862,424)" d="m0 0h48l9 2 8 4 6 7 1 2v48l-3 7-5 5-6 3-10 2-11 1h-9v41l-1 1h-26l-1-1zm28 19v41h14l1-1 1-9v-18l-1-12-1-1z" fill="#008B44"/>
<path transform="translate(1445,424)" d="m0 0h28l3 12 14 67 8 37 1 6-2 1h-26l-1-2-2-16h-18l-2 17-1 1h-27l-1-4 4-16 21-100zm13 57-1 1-3 21v7l1 1h6l2-1v-14l-2-14z" fill="#018B44"/>
<path transform="translate(1222,424)" d="m0 0h54v13l-1 8h-24v27l16 1v22h-17v52h-27l-1-7z" fill="#008B44"/>
<path transform="translate(1038,424)" d="m0 0h28v122l-1 1h-27z" fill="#008B44"/>
</svg>
